<svg viewBox="0 0 45 46" fill="none" xmlns="http://www.w3.org/2000/svg"><path d="M6.21 44.08c1.9.8 3.83.9 5.89.91h21.52c.92 0 1.74-.07 2.6-.2a9.27 9.27 0 0 0 5.76-3.03 8.76 8.76 0 0 0 2.18-4.2c.22-1.1.34-2.4.34-3.85v-21.35c0-1.3-.05-2.34-.25-3.46a9.34 9.34 0 0 0-7.92-7.69 16.5 16.5 0 0 0-2.1-.2h-22.57c-1.16 0-2.1.07-3.16.24a9.31 9.31 0 0 0-7.79 7.9c-.13.87-.2 1.62-.2 2.26l-.01 22.61c0 .85.06 1.75.2 2.67a9.32 9.32 0 0 0 5.51 7.39Z" stroke="#EB8C8D" stroke-width=".206"/><path d="M24.06 9.9c.12-.4.36-.63.62-.94.23-.27.22-.6-.07-.83a3.66 3.66 0 0 0-4.41.05c-.33.27-.24.59.04.87a2.77 2.77 0 0 1 .57.9.04.04 0 0 1-.02.03h-.02a14.14 14.14 0 0 0-12.08 11.27c-.13.62-.2 1.27.4 1.58.2.1.56.14 1.1.14h24.87c.32 0 .55-.02.68-.07.55-.22.8-.79.7-1.37a14.13 14.13 0 0 0-12.34-11.57c-.03 0-.05-.02-.04-.06Zm-9.96 18.07c-2.34-3.34-7.09-.11-4.96 3.23 6.22 9.78 20.44 9.88 26.64.02.27-.43.45-.79.54-1.07a2.95 2.95 0 0 0-4.92-2.92c-.14.14-.37.45-.68.92a9.86 9.86 0 0 1-2.41 2.58l-.53.4a8.56 8.56 0 0 1-7.54 1.55 11.07 11.07 0 0 1-3.72-2.02 11.1 11.1 0 0 1-2.43-2.69Z" stroke="#EB8C8D" stroke-width=".206"/><path d="M33.26 18.11a12.24 12.24 0 0 0-8.52-7.1c-.43-.11-.55.38-.13.58 3.56 1.76 6.96 4.91 7.39 9.1.05.5.16.8.68.82.73.03 1.42-.2 1.29-1.08-.1-.7-.34-1.47-.7-2.32Z" stroke="#EB8C8D" stroke-width=".206"/><path d="M6.21 44.08a9.32 9.32 0 0 1-5.52-7.39c-.13-.92-.2-1.81-.19-2.67l.01-22.6c0-.65.07-1.4.2-2.27a9.31 9.31 0 0 1 7.8-7.9c1.05-.17 2-.24 3.15-.24h22.56c.49 0 1.19.07 2.1.2a9.33 9.33 0 0 1 7.93 7.69c.2 1.12.25 2.16.25 3.46v21.35c0 1.46-.12 2.74-.34 3.86a8.76 8.76 0 0 1-2.18 4.19 9.27 9.27 0 0 1-5.75 3.04c-.87.12-1.69.19-2.61.19h-21.52c-2.06 0-4-.1-5.89-.91Zm17.85-34.18c.12-.4.36-.63.62-.94.23-.27.22-.6-.07-.83a3.66 3.66 0 0 0-4.41.05c-.33.27-.24.59.04.87a2.77 2.77 0 0 1 .57.9.04.04 0 0 1-.02.03h-.02a14.14 14.14 0 0 0-12.08 11.27c-.13.62-.2 1.27.4 1.58.2.1.56.14 1.1.14h24.87c.32 0 .55-.02.68-.07.55-.22.8-.79.7-1.37a14.13 14.13 0 0 0-12.34-11.57c-.03 0-.05-.02-.04-.06Zm-9.97 18.07c-2.33-3.34-7.08-.11-4.95 3.23 6.22 9.78 20.44 9.88 26.64.02.27-.43.45-.79.54-1.07a2.95 2.95 0 0 0-4.92-2.92c-.14.14-.37.45-.68.92a9.86 9.86 0 0 1-2.41 2.58l-.53.4a8.56 8.56 0 0 1-7.54 1.55 11.07 11.07 0 0 1-3.72-2.02 11.1 11.1 0 0 1-2.43-2.69Z" fill="#F03328"/><path d="M24.1 9.96a14.13 14.13 0 0 1 12.34 11.57c.1.58-.15 1.15-.7 1.37-.13.05-.36.07-.68.07h-24.87c-.54 0-.9-.04-1.1-.14-.6-.3-.53-.96-.4-1.58a14.14 14.14 0 0 1 12.11-11.28.04.04 0 0 0 0-.04 2.77 2.77 0 0 0-.56-.88c-.28-.28-.37-.6-.04-.87a3.66 3.66 0 0 1 4.4-.05c.3.22.3.56.08.83-.27.31-.5.54-.62.94 0 .04 0 .05.04.06Zm9.16 8.15a12.24 12.24 0 0 0-8.52-7.1c-.43-.11-.55.38-.13.58 3.56 1.76 6.96 4.91 7.39 9.1.05.5.16.8.68.82.73.03 1.42-.2 1.29-1.08-.1-.7-.34-1.47-.7-2.32Z" fill="#F8F8F8"/><path d="M33.26 18.11c.37.85.6 1.62.7 2.32.14.87-.55 1.11-1.28 1.08-.52-.02-.63-.33-.68-.81-.43-4.2-3.83-7.35-7.4-9.1-.4-.21-.29-.7.14-.6 3.87.95 6.96 3.48 8.52 7.11Z" fill="#FF9E0C"/><path d="M9.14 31.2c-2.13-3.34 2.62-6.57 4.95-3.23a11.1 11.1 0 0 0 2.43 2.7c1.04.77 2.28 1.63 3.72 2.01 2.65.7 5.38.15 7.54-1.55l.53-.4a9.85 9.85 0 0 0 2.41-2.58c.31-.47.54-.78.68-.92a2.95 2.95 0 0 1 4.92 2.92 4.8 4.8 0 0 1-.54 1.07c-6.2 9.86-20.42 9.76-26.64-.02Z" fill="#F8F8F8"/></svg>